<?xml version="1.0" encoding="utf-8"?>
<!-- Generator: Adobe Illustrator 25.2.1, SVG Export Plug-In . SVG Version: 6.00 Build 0)  -->
<svg version="1.1" id="圖層_1" xmlns="http://www.w3.org/2000/svg" xmlns:xlink="http://www.w3.org/1999/xlink" x="0px" y="0px"
	 viewBox="0 0 82.3 26.3" style="enable-background:new 0 0 82.3 26.3;" xml:space="preserve">
<style type="text/css">
	.st0{fill:#06C755;}
	.st1{fill:#FFFFFF;}
</style>
<g>
	<rect x="18.2" class="st0" width="54.9" height="26.3"/>
</g>
<g id="g7958" transform="matrix(1.6639441,0,0,1.6639441,535.69699,483.72129)">
	<g id="path7960">
		<path class="st0" d="M-309-290.7h-10.1c-1.6,0-2.9,1.3-2.9,2.9v10.1c0,1.6,1.3,2.9,2.9,2.9h10.1c1.6,0,2.9-1.3,2.9-2.9v-10.1
			C-306.1-289.4-307.4-290.7-309-290.7"/>
	</g>
</g>
<g id="g7962" transform="matrix(1.6639441,0,0,1.6639441,546.02809,375.00068)">
	<g id="path7964">
		<path class="st1" d="M-314.5-218.2c0-2.6-2.6-4.7-5.8-4.7c-3.2,0-5.8,2.1-5.8,4.7c0,2.3,2,4.2,4.8,4.6c0.2,0,0.4,0.1,0.5,0.3
			c0.1,0.1,0,0.4,0,0.5c0,0-0.1,0.4-0.1,0.5c0,0.1-0.1,0.6,0.5,0.3c0.6-0.3,3.3-1.9,4.5-3.4l0,0
			C-314.9-216.2-314.5-217.1-314.5-218.2"/>
	</g>
</g>
<g id="g7966" transform="matrix(1.6639441,0,0,1.6639441,441.5933,393.76931)">
	<g id="path7968">
		<path class="st0" d="M-258.7-230.7h-0.4c-0.1,0-0.1,0.1-0.1,0.1v2.5c0,0.1,0,0.1,0.1,0.1h0.4c0.1,0,0.1-0.1,0.1-0.1v-2.5
			C-258.6-230.6-258.6-230.7-258.7-230.7"/>
	</g>
</g>
<g id="g7970" transform="matrix(1.6639441,0,0,1.6639441,483.49956,393.76931)">
	<g id="path7972">
		<path class="st0" d="M-281.1-230.7h-0.4c-0.1,0-0.1,0.1-0.1,0.1v1.5l-1.1-1.6l0,0l0,0c0,0,0,0,0,0l0,0c0,0,0,0,0,0l0,0
			c0,0,0,0,0,0l0,0c0,0,0,0,0,0l0,0c0,0,0,0,0,0l0,0c0,0,0,0,0,0l0,0c0,0,0,0,0,0l0,0c0,0,0,0,0,0c0,0,0,0,0,0l0,0h-0.4
			c-0.1,0-0.1,0.1-0.1,0.1v2.5c0,0.1,0,0.1,0.1,0.1h0.4c0.1,0,0.1-0.1,0.1-0.1v-1.5l1.1,1.6c0,0,0,0,0,0l0,0c0,0,0,0,0,0l0,0
			c0,0,0,0,0,0c0,0,0,0,0,0l0,0h0l0,0c0,0,0,0,0,0h0.4c0.1,0,0.1-0.1,0.1-0.1v-2.5C-281-230.6-281-230.7-281.1-230.7"/>
	</g>
</g>
<g id="g7974" transform="matrix(1.6639441,0,0,1.6639441,426.91715,362.04388)">
	<g id="path7976">
		<path class="st0" d="M-250.8-209.5h-1.1v-2c0-0.1-0.1-0.1-0.1-0.1h-0.4c-0.1,0-0.1,0.1-0.1,0.1v2.5l0,0c0,0,0,0.1,0,0.1l0,0l0,0
			c0,0,0.1,0,0.1,0l0,0h1.6c0.1,0,0.1-0.1,0.1-0.1v-0.4C-250.7-209.5-250.8-209.5-250.8-209.5"/>
	</g>
</g>
<g id="g7978" transform="matrix(1.6639441,0,0,1.6639441,517.12172,384.29914)">
	<g id="path7980">
		<path class="st0" d="M-299.1-224.4c0.1,0,0.1-0.1,0.1-0.1v-0.4c0-0.1,0-0.1-0.1-0.1h-1.6l0,0c0,0-0.1,0-0.1,0l0,0l0,0
			c0,0,0,0.1,0,0.1l0,0v2.5l0,0c0,0,0,0.1,0,0.1l0,0l0,0c0,0,0,0,0.1,0l0,0h1.6c0.1,0,0.1-0.1,0.1-0.1v-0.4c0-0.1,0-0.1-0.1-0.1
			h-1.1v-0.4h1.1c0.1,0,0.1-0.1,0.1-0.1v-0.4c0-0.1,0-0.1-0.1-0.1h-1.1v-0.4L-299.1-224.4L-299.1-224.4z"/>
	</g>
</g>
<g id="g7958_1_" transform="matrix(1.6639441,0,0,1.6639441,535.69699,483.72129)">
	<g id="path7960_1_">
		<path class="st0" d="M-275.4-290.7h-10.1c-1.6,0-2.9,1.3-2.9,2.9v10.1c0,1.6,1.3,2.9,2.9,2.9h10.1c1.6,0,2.9-1.3,2.9-2.9v-10.1
			C-272.5-289.4-273.8-290.7-275.4-290.7"/>
	</g>
</g>
<g>
	<path class="st1" d="M33.6,15.8c0,0.6-0.1,0.9-0.5,1.1c-0.4,0.2-1,0.2-1.9,0.2c0-0.3-0.2-0.8-0.4-1.1c0.5,0,1.2,0,1.4,0
		c0.2,0,0.2-0.1,0.2-0.2v-1.4h-2V17h-1.2v-2.7h-2c-0.2,1.1-0.5,2.1-1.2,2.9c-0.2-0.2-0.6-0.6-0.9-0.8c1.1-1.2,1.1-2.9,1.1-4.2V8.7
		h7.3L33.6,15.8L33.6,15.8z M29.2,13.2V12h-1.8v0.2c0,0.3,0,0.7,0,1C27.4,13.2,29.2,13.2,29.2,13.2z M27.4,9.8v1.1h1.8V9.8H27.4z
		 M32.4,9.8h-2v1.1h2V9.8z M32.4,13.2V12h-2v1.2C30.4,13.2,32.4,13.2,32.4,13.2z"/>
	<path class="st1" d="M35.5,9.1H37v6h2.9v1.2h-4.3V9.1z"/>
	<path class="st1" d="M41.2,9.1h1.4v7.2h-1.4V9.1z"/>
	<path class="st1" d="M44.5,9.1H46l2.1,3.8l0.7,1.6h0c-0.1-0.8-0.2-1.7-0.2-2.5V9.1H50v7.2h-1.5l-2.1-3.8l-0.7-1.5h0
		c0.1,0.8,0.2,1.7,0.2,2.5v2.9h-1.4V9.1z"/>
	<path class="st1" d="M51.9,9.1h4.4v1.2h-3V12h2.5v1.2h-2.5v1.9h3.1v1.2h-4.5V9.1z"/>
	<path class="st1" d="M65.2,14.2h1.2v0.9h-1.2v1c0,0.5-0.1,0.8-0.5,0.9c-0.4,0.1-0.9,0.1-1.6,0.1c0-0.3-0.2-0.7-0.3-1
		c0.5,0,0.9,0,1.1,0c0.2,0,0.2,0,0.2-0.2v-1H62c0.4,0.4,0.8,0.8,1,1.1L62,16.7c-0.2-0.4-0.7-0.9-1.1-1.3l0.5-0.3H60v-0.9h4.1v-0.4
		c-1.4,0-2.8,0.1-3.8,0.1L60.2,13c0.7,0,1.6,0,2.5,0v-0.4h-2.1V9.9h2.1V9.6h-2.5V9.1c-0.2,0.4-0.4,0.9-0.7,1.3v6.7h-1.1v-4.9
		c-0.2,0.3-0.4,0.5-0.7,0.8c-0.1-0.3-0.4-0.9-0.6-1.2c0.9-0.9,1.7-2.2,2.2-3.6l1.1,0.4l-0.1,0.3h2.4V8.1h1.1v0.6h2.5v0.8h-2.5v0.4
		h2.2v2.7h-0.4c0.4,0.3,0.7,0.7,0.9,1l-0.8,0.5c-0.1-0.1-0.2-0.2-0.2-0.3l-0.3,0L65.2,14.2L65.2,14.2z M61.7,11h1.1v-0.4h-1.1V11z
		 M62.8,12v-0.4h-1.1V12H62.8z M63.9,10.6V11H65v-0.4H63.9z M65,11.6h-1.1V12H65V11.6z M63.9,13l0.9,0c-0.1-0.1-0.2-0.2-0.3-0.3
		l0.1,0h-0.7C63.9,12.6,63.9,13,63.9,13z"/>
	<path class="st1" d="M70.1,12.9c-0.2,0.8-0.5,1.7-0.8,2.3c0.1,0.1,0.3,0.2,0.5,0.3c0.7,0.4,1.6,0.5,2.7,0.5c1.1,0,2.8-0.1,3.9-0.2
		C76.2,16,76,16.6,76,16.9c-0.8,0-2.5,0.1-3.6,0.1c-1.3,0-2.1-0.1-2.8-0.5c-0.4-0.2-0.8-0.5-0.9-0.5c-0.2,0-0.6,0.7-0.8,1.2
		l-0.8-1.1c0.4-0.5,0.8-0.9,1.2-1c0.2-0.5,0.4-1.1,0.6-1.6h-1.3c0.2-0.5,0.5-1.3,0.7-2h-1v-1h2.4c-0.2,0.7-0.5,1.4-0.7,2.1h0.6
		l0.2-0.1l0.4,0.2v-0.7h2.3v-1.1h-2.1V9.7h1.2c-0.2-0.4-0.4-0.9-0.7-1.2l1-0.4c0.3,0.4,0.6,1,0.8,1.4l-0.5,0.2h1.4
		c0.3-0.5,0.6-1.1,0.8-1.6l1.2,0.3c-0.2,0.4-0.5,0.9-0.8,1.3h1.1v1.1h-2.3v1.1h2.6v1.1h-2.4c0.8,0.7,1.7,1.5,2.2,2l-0.8,0.8
		c-0.4-0.5-1.3-1.3-2-2c-0.4,0.7-1.1,1.4-2.3,2c-0.2-0.2-0.5-0.6-0.8-0.9c1.4-0.5,2-1.2,2.2-1.9L70.1,12.9L70.1,12.9z M68.3,10.1
		C68.2,9.7,68,9,67.8,8.5l1.1-0.3c0.2,0.5,0.4,1.1,0.6,1.6L68.3,10.1z"/>
</g>
</svg>
