<?xml version="1.0" encoding="utf-8"?>
<!-- Generator: Adobe Illustrator 25.2.1, SVG Export Plug-In . SVG Version: 6.00 Build 0)  -->
<svg version="1.1" id="圖層_1" xmlns="http://www.w3.org/2000/svg" xmlns:xlink="http://www.w3.org/1999/xlink" x="0px" y="0px"
	 viewBox="0 0 94.6 26.3" style="enable-background:new 0 0 94.6 26.3;" xml:space="preserve">
<style type="text/css">
	.st0{fill:#06C755;}
	.st1{fill:#FFFFFF;}
</style>
<g>
	<rect x="18.2" y="0" class="st0" width="54.9" height="26.3"/>
</g>
<g id="g7958" transform="matrix(1.6639441,0,0,1.6639441,535.69699,483.72129)">
	<g id="path7960">
		<path class="st0" d="M-309-290.7h-10.1c-1.6,0-2.9,1.3-2.9,2.9v10.1c0,1.6,1.3,2.9,2.9,2.9h10.1c1.6,0,2.9-1.3,2.9-2.9v-10.1
			C-306.1-289.4-307.4-290.7-309-290.7"/>
	</g>
</g>
<g id="g7962" transform="matrix(1.6639441,0,0,1.6639441,546.02809,375.00068)">
	<g id="path7964">
		<path class="st1" d="M-314.5-218.1c0-2.6-2.6-4.7-5.8-4.7c-3.2,0-5.8,2.1-5.8,4.7c0,2.3,2,4.2,4.8,4.6c0.2,0,0.4,0.1,0.5,0.3
			c0.1,0.1,0,0.4,0,0.5c0,0-0.1,0.4-0.1,0.5c0,0.1-0.1,0.6,0.5,0.3c0.6-0.3,3.3-1.9,4.5-3.4l0,0
			C-314.9-216.2-314.5-217.1-314.5-218.1"/>
	</g>
</g>
<g id="g7966" transform="matrix(1.6639441,0,0,1.6639441,441.5933,393.76931)">
	<g id="path7968">
		<path class="st0" d="M-258.7-230.7h-0.4c-0.1,0-0.1,0.1-0.1,0.1v2.5c0,0.1,0,0.1,0.1,0.1h0.4c0.1,0,0.1-0.1,0.1-0.1v-2.5
			C-258.6-230.6-258.6-230.7-258.7-230.7"/>
	</g>
</g>
<g id="g7970" transform="matrix(1.6639441,0,0,1.6639441,483.49956,393.76931)">
	<g id="path7972">
		<path class="st0" d="M-281.1-230.7h-0.4c-0.1,0-0.1,0.1-0.1,0.1v1.5l-1.1-1.6l0,0l0,0c0,0,0,0,0,0l0,0c0,0,0,0,0,0l0,0
			c0,0,0,0,0,0l0,0c0,0,0,0,0,0l0,0c0,0,0,0,0,0l0,0c0,0,0,0,0,0l0,0c0,0,0,0,0,0l0,0c0,0,0,0,0,0c0,0,0,0,0,0l0,0h-0.4
			c-0.1,0-0.1,0.1-0.1,0.1v2.5c0,0.1,0,0.1,0.1,0.1h0.4c0.1,0,0.1-0.1,0.1-0.1v-1.5l1.1,1.6c0,0,0,0,0,0l0,0c0,0,0,0,0,0l0,0
			c0,0,0,0,0,0c0,0,0,0,0,0l0,0h0l0,0c0,0,0,0,0,0h0.4c0.1,0,0.1-0.1,0.1-0.1v-2.5C-281-230.6-281-230.7-281.1-230.7"/>
	</g>
</g>
<g id="g7974" transform="matrix(1.6639441,0,0,1.6639441,426.91715,362.04388)">
	<g id="path7976">
		<path class="st0" d="M-250.8-209.5h-1.1v-2c0-0.1-0.1-0.1-0.1-0.1h-0.4c-0.1,0-0.1,0.1-0.1,0.1v2.5l0,0c0,0,0,0.1,0,0.1l0,0l0,0
			c0,0,0.1,0,0.1,0l0,0h1.6c0.1,0,0.1-0.1,0.1-0.1v-0.4C-250.7-209.4-250.8-209.5-250.8-209.5"/>
	</g>
</g>
<g id="g7978" transform="matrix(1.6639441,0,0,1.6639441,517.12172,384.29914)">
	<g id="path7980">
		<path class="st0" d="M-299-224.3c0.1,0,0.1-0.1,0.1-0.1v-0.4c0-0.1,0-0.1-0.1-0.1h-1.6l0,0c0,0-0.1,0-0.1,0l0,0l0,0
			c0,0,0,0.1,0,0.1l0,0v2.5l0,0c0,0,0,0.1,0,0.1l0,0l0,0c0,0,0,0,0.1,0l0,0h1.6c0.1,0,0.1-0.1,0.1-0.1v-0.4c0-0.1,0-0.1-0.1-0.1
			h-1.1v-0.4h1.1c0.1,0,0.1-0.1,0.1-0.1v-0.4c0-0.1,0-0.1-0.1-0.1h-1.1v-0.4L-299-224.3L-299-224.3z"/>
	</g>
</g>
<g id="g7958_1_" transform="matrix(1.6639441,0,0,1.6639441,535.69699,483.72129)">
	<g id="path7960_1_">
		<path class="st0" d="M-267.9-290.7H-278c-1.6,0-2.9,1.3-2.9,2.9v10.1c0,1.6,1.3,2.9,2.9,2.9h10.1c1.6,0,2.9-1.3,2.9-2.9v-10.1
			C-265.1-289.4-266.3-290.7-267.9-290.7"/>
	</g>
</g>
<g>
	<path class="st1" d="M32.5,12.6c0.6,0.6,1.4,1.2,2.4,1.5c-0.2,0.2-0.6,0.7-0.8,1c-0.7-0.3-1.3-0.7-1.9-1.2v0.7h-1.5v0.6h3v1h-3v1.4
		h-1.2v-1.4h-3.1v-1h3.1v-0.6h-1.6V14c-0.5,0.5-1.1,0.9-1.8,1.2c-0.2-0.3-0.6-0.7-0.8-0.9c0.9-0.4,1.7-1,2.3-1.6h-1.8v-0.9h2.5
		c0.1-0.1,0.2-0.3,0.3-0.4h-2v-0.9H29c0.1-0.1,0.1-0.3,0.2-0.5h-2.9V9h3.1c0-0.2,0.1-0.5,0.1-0.7l1.2,0.2c0,0.1-0.1,0.3-0.1,0.5h3.2
		v0.9h-3.5c0,0.1-0.1,0.3-0.2,0.5h3.3v0.9h-3.6c-0.1,0.2-0.2,0.3-0.2,0.4h4.7v0.9H32.5z M30.7,12.9v0.7H32c-0.3-0.3-0.6-0.6-0.8-1
		h-2.1c-0.2,0.3-0.5,0.7-0.8,1h1.3v-0.7H30.7z"/>
	<path class="st1" d="M45.3,16v1.2h-9.1V16h3.6V8.5h1.3v2.9h3.5v1.2h-3.5V16H45.3z"/>
	<path class="st1" d="M55.6,9.4c-0.3,0.8-0.8,1.5-1.3,2.1c0.6,0.3,1.2,0.5,2,0.6c-0.2,0.2-0.6,0.7-0.7,1c-0.8-0.2-1.6-0.5-2.2-0.9
		c-0.7,0.5-1.6,0.8-2.5,1.1c-0.1-0.2-0.3-0.6-0.5-0.8v4.3h-0.8v-0.4h-2.5V10h0.8v5.3h0.4V8.5h1v6.8h0.4V10h0.8v2.3
		c0.8-0.2,1.5-0.4,2.1-0.8c-0.2-0.2-0.4-0.4-0.6-0.6c-0.2,0.2-0.4,0.4-0.7,0.6c-0.2-0.2-0.6-0.6-0.9-0.7c0.9-0.5,1.7-1.4,2-2.4
		l1.1,0.3c-0.1,0.2-0.2,0.3-0.2,0.5h1.4l0.2,0L55.6,9.4z M53.9,15.8H56v0.9h-2.1v1h-1.2v-1h-2.1v-0.9h2.1v-0.4h-1.6v-0.9h1.6v-0.4
		h-1.6v-0.8h1.6v-0.5h1.2v0.5h1.7v0.8h-1.7v0.4h1.6v0.9h-1.6V15.8z M52.6,10.1c0.2,0.3,0.4,0.5,0.7,0.8c0.3-0.3,0.5-0.5,0.7-0.9
		L52.6,10.1L52.6,10.1z"/>
	<path class="st1" d="M60.7,8.7c-0.2,0.7-0.6,1.5-1,2.2v6.8h-1.1v-5c-0.2,0.2-0.4,0.5-0.5,0.7c-0.1-0.3-0.4-0.9-0.6-1.2
		c0.9-0.9,1.7-2.3,2.2-3.7L60.7,8.7z M66.9,16.5v1h-6.7v-1H61v-5.5h1.7c0-0.2,0.1-0.4,0.1-0.7h-2.3v-1H63c0-0.3,0.1-0.6,0.1-0.9
		l1.3,0c0,0.3-0.1,0.6-0.2,0.8h2.5v1H64c-0.1,0.2-0.1,0.5-0.2,0.7h2.3v5.5H66.9z M62,11.8v0.5h3v-0.5H62z M65,13.2h-3v0.5h3V13.2z
		 M62,14.5v0.6h3v-0.6H62z M62,16.5h3v-0.6h-3V16.5z"/>
	<path class="st1" d="M71.9,13v3.6c0,0.4-0.1,0.7-0.3,0.8c-0.3,0.2-0.6,0.2-1.2,0.2c0-0.2-0.2-0.6-0.3-0.9c0.3,0,0.6,0,0.7,0
		c0.1,0,0.1,0,0.1-0.1v-0.9c-0.3,0.2-0.6,0.4-1,0.6l-0.3-0.6c-0.1,0.7-0.2,1.4-0.6,1.9c-0.2-0.2-0.6-0.5-0.8-0.6
		c0.5-0.8,0.5-1.8,0.5-2.6V13h-0.5v-1.5h0.4V8.6H72v2.8h0.4V13H71.9z M71.5,12.3h-2.3v0.4h2.3V12.3z M69.6,11.5H70V9.9h1V9.5h-1.4
		V11.5z M69.8,14.6c0,0.3,0,0.6,0,0.9c0.3-0.1,0.8-0.3,1.2-0.6v-0.4L70.6,15c-0.2-0.2-0.5-0.4-0.8-0.7V14.6z M69.8,14l0.3-0.3
		c0.3,0.2,0.6,0.4,0.8,0.6v-0.8h-1.2V14z M71,11.5v-0.9h-0.4v0.9H71z M77.6,16.7v0.9h-5.3v-0.9h1.2c-0.1-0.2-0.2-0.5-0.3-0.7
		l0.6-0.2h-1.1v-1.9h4.3v1.9H76l0.8,0.2c-0.2,0.2-0.3,0.5-0.4,0.7H77.6z M77.5,13.5h-5.1v-0.8h5.1V13.5z M77.3,12.3h-4.8V9.1h1.2
		V8.3h0.9v0.7h0.4V8.3H76v0.7h1.3V12.3z M73.4,10.3H74V9.8h-0.5V10.3z M73.4,11.5H74V11h-0.5V11.5z M73.8,15H76v-0.5h-2.2V15z
		 M74.2,15.7c0.1,0.3,0.2,0.6,0.3,0.9h0.8c0.1-0.3,0.2-0.6,0.3-0.9H74.2z M75.2,10.3V9.8h-0.5v0.5H75.2z M74.7,11v0.5h0.5V11H74.7z
		 M76.4,9.8h-0.5v0.5h0.5V9.8z M76.4,11h-0.5v0.5h0.5V11z"/>
	<path class="st1" d="M78.9,16.8c0.2-0.6,0.3-1.5,0.4-2.2l0.6,0.2c-0.1,0.7-0.2,1.6-0.4,2.2L78.9,16.8z M84.9,14.8
		c-0.1,0.3-0.1,0.5-0.2,0.8c0.4,0.2,0.7,0.5,0.9,0.7L85,17c-0.2-0.2-0.4-0.4-0.7-0.6c-0.2,0.5-0.5,0.9-0.9,1.3
		c-0.1-0.2-0.5-0.5-0.7-0.6c0,0.1-0.1,0.2-0.1,0.2c-0.1,0.2-0.3,0.3-0.5,0.3c-0.2,0-0.5,0-0.8,0c0-0.3-0.1-0.6-0.2-0.9
		c0.2,0,0.5,0,0.6,0c0.1,0,0.2,0,0.2-0.1c0.1-0.1,0.1-0.3,0.1-0.9l-0.3,0.1c-0.1-0.3-0.2-0.9-0.4-1.3l0.4-0.1c0.1,0.3,0.3,0.7,0.3,1
		c0-0.3,0-0.7,0-1.2h-2.6V8.7h3.5v1h-1v0.7h0.9v0.2c1.1-0.6,2-1.5,2.6-2.4l1.1,0.4c-0.1,0.1-0.1,0.2-0.2,0.3
		c0.6,0.5,1.5,1.1,2.2,1.3c-0.2,0.3-0.4,0.8-0.4,1.1c-0.3-0.2-0.6-0.3-0.9-0.5v0.7h-2.9v-0.5c-0.2,0.1-0.5,0.3-0.7,0.4
		c-0.1-0.2-0.4-0.5-0.7-0.7v0.5h-0.9v0.6h0.9v0.9h-0.9v0.6H83c0,0,0,0.3,0,0.4c0,1.9-0.1,2.8-0.2,3.3c0.6-0.6,1-1.4,1.1-2.4
		L84.9,14.8z M80.5,14.8c0,0.6,0.1,1.3,0.1,1.8l-0.5,0.1c0-0.5,0-1.3-0.1-1.8L80.5,14.8z M80.3,9.7v0.7h0.6V9.7H80.3z M80.9,11.2
		h-0.6v0.6h0.6V11.2z M80.3,13.3h0.6v-0.6h-0.6V13.3z M81.1,14.7c0.1,0.5,0.2,1.2,0.3,1.6l-0.5,0.1c0-0.4-0.1-1.1-0.3-1.6L81.1,14.7
		z M83.2,12h2.1v2.4h-2.1V12z M84,13.6h0.5v-0.9H84V13.6z M86.6,10.5c-0.4-0.3-0.8-0.6-1.1-0.9c-0.3,0.3-0.6,0.6-1,0.9H86.6z
		 M87.4,14.7c-0.1,0.4-0.2,0.8-0.3,1.2c0.4,0.3,0.9,0.6,1.2,0.9l-0.7,0.8c-0.2-0.2-0.5-0.5-0.9-0.8c-0.2,0.3-0.4,0.6-0.6,0.9
		c-0.2-0.2-0.6-0.5-0.9-0.7c0.6-0.6,0.9-1.5,1.1-2.5L87.4,14.7z M85.7,12h2.2v2.4h-2.2V12z M86.4,13.6h0.6v-0.9h-0.6V13.6z"/>
</g>
</svg>
