<?xml version="1.0" encoding="utf-8"?>
<!-- Generator: Adobe Illustrator 25.2.1, SVG Export Plug-In . SVG Version: 6.00 Build 0)  -->
<svg version="1.1" id="圖層_1" xmlns="http://www.w3.org/2000/svg" xmlns:xlink="http://www.w3.org/1999/xlink" x="0px" y="0px"
	 viewBox="0 0 94.6 26.3" style="enable-background:new 0 0 94.6 26.3;" xml:space="preserve">
<style type="text/css">
	.st0{fill:#06C755;}
	.st1{fill:#FFFFFF;}
</style>
<g>
	<rect x="18.2" y="0" class="st0" width="54.9" height="26.3"/>
</g>
<g id="g7958" transform="matrix(1.6639441,0,0,1.6639441,535.69699,483.72129)">
	<g id="path7960">
		<path class="st0" d="M-309-290.7h-10.1c-1.6,0-2.9,1.3-2.9,2.9v10.1c0,1.6,1.3,2.9,2.9,2.9h10.1c1.6,0,2.9-1.3,2.9-2.9v-10.1
			C-306.1-289.4-307.4-290.7-309-290.7"/>
	</g>
</g>
<g id="g7962" transform="matrix(1.6639441,0,0,1.6639441,546.02809,375.00068)">
	<g id="path7964">
		<path class="st1" d="M-314.5-218.1c0-2.6-2.6-4.7-5.8-4.7c-3.2,0-5.8,2.1-5.8,4.7c0,2.3,2,4.2,4.8,4.6c0.2,0,0.4,0.1,0.5,0.3
			c0.1,0.1,0,0.4,0,0.5c0,0-0.1,0.4-0.1,0.5s-0.1,0.6,0.5,0.3s3.3-1.9,4.5-3.4l0,0C-314.9-216.2-314.5-217.1-314.5-218.1"/>
	</g>
</g>
<g id="g7966" transform="matrix(1.6639441,0,0,1.6639441,441.5933,393.76931)">
	<g id="path7968">
		<path class="st0" d="M-258.7-230.7h-0.4c-0.1,0-0.1,0.1-0.1,0.1v2.5c0,0.1,0,0.1,0.1,0.1h0.4c0.1,0,0.1-0.1,0.1-0.1v-2.5
			C-258.6-230.6-258.6-230.7-258.7-230.7"/>
	</g>
</g>
<g id="g7970" transform="matrix(1.6639441,0,0,1.6639441,483.49956,393.76931)">
	<g id="path7972">
		<path class="st0" d="M-281.1-230.7h-0.4c-0.1,0-0.1,0.1-0.1,0.1v1.5l-1.1-1.6l0,0l0,0l0,0l0,0l0,0l0,0l0,0l0,0l0,0l0,0l0,0l0,0
			l0,0l0,0l0,0l0,0l0,0l0,0l0,0h-0.4c-0.1,0-0.1,0.1-0.1,0.1v2.5c0,0.1,0,0.1,0.1,0.1h0.4c0.1,0,0.1-0.1,0.1-0.1v-1.5l1.1,1.6l0,0
			l0,0l0,0l0,0l0,0l0,0l0,0l0,0l0,0l0,0h0.4c0.1,0,0.1-0.1,0.1-0.1v-2.5C-281-230.6-281-230.7-281.1-230.7"/>
	</g>
</g>
<g id="g7974" transform="matrix(1.6639441,0,0,1.6639441,426.91715,362.04388)">
	<g id="path7976">
		<path class="st0" d="M-250.8-209.5h-1.1v-2c0-0.1-0.1-0.1-0.1-0.1h-0.4c-0.1,0-0.1,0.1-0.1,0.1v2.5l0,0v0.1l0,0l0,0h0.1l0,0h1.6
			c0.1,0,0.1-0.1,0.1-0.1v-0.4L-250.8-209.5"/>
	</g>
</g>
<g id="g7978" transform="matrix(1.6639441,0,0,1.6639441,517.12172,384.29914)">
	<g id="path7980">
		<path class="st0" d="M-299-224.3c0.1,0,0.1-0.1,0.1-0.1v-0.4c0-0.1,0-0.1-0.1-0.1h-1.6l0,0h-0.1l0,0l0,0v0.1l0,0v2.5l0,0v0.1l0,0
			l0,0c0,0,0,0,0.1,0l0,0h1.6c0.1,0,0.1-0.1,0.1-0.1v-0.4c0-0.1,0-0.1-0.1-0.1h-1.1v-0.4h1.1c0.1,0,0.1-0.1,0.1-0.1v-0.4
			c0-0.1,0-0.1-0.1-0.1h-1.1v-0.4L-299-224.3L-299-224.3z"/>
	</g>
</g>
<g id="g7958_1_" transform="matrix(1.6639441,0,0,1.6639441,535.69699,483.72129)">
	<g id="path7960_1_">
		<path class="st0" d="M-267.9-290.7H-278c-1.6,0-2.9,1.3-2.9,2.9v10.1c0,1.6,1.3,2.9,2.9,2.9h10.1c1.6,0,2.9-1.3,2.9-2.9v-10.1
			C-265.1-289.4-266.3-290.7-267.9-290.7"/>
	</g>
</g>
<g>
	<path class="st1" d="M32.1,8.2c0.5,1.5,1.5,2.9,2.9,3.6c-0.2,0.2-0.7,0.8-0.8,1.1c-0.3-0.2-0.5-0.4-0.8-0.6c-0.1,3-0.2,4.1-0.6,4.5
		c-0.3,0.3-0.5,0.4-0.9,0.5c-0.3,0-0.9,0-1.5,0c0-0.4-0.2-0.9-0.4-1.2c0.6,0,1.1,0,1.3,0c0.2,0,0.3,0,0.4-0.1
		c0.2-0.2,0.3-1.1,0.4-3.2h-2c-0.3,1.9-0.9,3.6-3.5,4.6c-0.2-0.3-0.5-0.8-0.8-1.1c2.3-0.7,2.8-2.1,3-3.5h-1.7v-0.7
		c-0.2,0.3-0.5,0.5-0.8,0.7c-0.2-0.2-0.7-0.7-1-0.9c1.1-0.8,2-2.2,2.5-3.7l1.3,0.3c-0.4,1.1-0.9,2.2-1.6,3h5.2
		c-0.7-0.7-1.2-1.6-1.5-2.4h-1.6V8.2H32.1z"/>
	<path class="st1" d="M45.4,15.6h-3.9v0.7c0,0.6-0.2,0.8-0.7,1c-0.5,0.1-1.1,0.1-2,0.1c-0.1-0.3-0.3-0.7-0.4-1c0.6,0,1.4,0,1.5,0
		c0.2,0,0.3,0,0.3-0.2v-0.7h-3.9v-1h3.9v-0.4h0l0,0c0.4-0.1,0.9-0.2,1.3-0.4h-4.1v-0.9h6.1l0.3,0l0.8,0.7c-0.8,0.4-1.8,0.8-2.8,1.1
		h3.8V15.6z M45.3,9.8h-8.7v-1h3.7c-0.1-0.2-0.1-0.4-0.2-0.6L41.3,8c0.1,0.2,0.2,0.5,0.3,0.8h3.7V9.8z M37.7,12.4v-2.2h6.5v2.2H37.7
		z M38.9,11.6h4v-0.6h-4V11.6z"/>
	<path class="st1" d="M55.8,9.1c-0.3,0.9-0.8,1.5-1.3,2.1c0.6,0.3,1.2,0.5,2,0.7c-0.3,0.2-0.6,0.7-0.7,1c-0.9-0.2-1.6-0.5-2.2-0.9
		C52.8,12.4,52,12.7,51,13c-0.1-0.2-0.3-0.6-0.5-0.8v4.3h-0.8V16h-2.5V9.7H48V15h0.4V8.2h1V15h0.4V9.7h0.8V12
		c0.8-0.2,1.5-0.4,2.1-0.8c-0.2-0.2-0.4-0.4-0.6-0.7c-0.2,0.2-0.4,0.4-0.7,0.6c-0.2-0.2-0.6-0.6-0.9-0.7C51.4,9.9,52.2,9,52.6,8
		l1.1,0.3c-0.1,0.2-0.2,0.3-0.2,0.5h1.4l0.2,0L55.8,9.1z M54.1,15.5h2.1v0.9h-2.1v1h-1.2v-1h-2.1v-0.9h2.1v-0.4h-1.6v-0.9h1.6v-0.4
		h-1.6v-0.9h1.6v-0.5h1.2v0.5h1.7v0.9h-1.7v0.4h1.6v0.9h-1.6V15.5z M52.8,9.8c0.2,0.3,0.5,0.5,0.7,0.8c0.3-0.3,0.5-0.5,0.7-0.9
		L52.8,9.8L52.8,9.8z"/>
	<path class="st1" d="M60.8,8.4c-0.3,0.7-0.6,1.5-1,2.2v6.8h-1.1v-5c-0.2,0.2-0.4,0.5-0.6,0.7c-0.1-0.3-0.4-0.9-0.6-1.2
		c0.9-0.9,1.7-2.3,2.2-3.7L60.8,8.4z M67,16.2v1h-6.7v-1h0.9v-5.6h1.7c0-0.2,0.1-0.4,0.1-0.7h-2.3v-1h2.4c0-0.3,0.1-0.6,0.1-0.9
		l1.3,0c0,0.3-0.1,0.6-0.2,0.9h2.5v1h-2.7c-0.1,0.3-0.1,0.5-0.2,0.7h2.3v5.6H67z M62.2,11.5v0.6h3v-0.6H62.2z M65.2,12.9h-3v0.6h3
		V12.9z M62.2,14.3v0.6h3v-0.6H62.2z M62.2,16.2h3v-0.6h-3V16.2z"/>
	<path class="st1" d="M72.1,12.7v3.6c0,0.4-0.1,0.7-0.4,0.8c-0.3,0.2-0.6,0.2-1.2,0.2c0-0.3-0.2-0.6-0.3-0.9c0.3,0,0.6,0,0.7,0
		c0.1,0,0.1,0,0.1-0.1v-0.9c-0.3,0.2-0.7,0.4-1,0.6l-0.3-0.6c-0.1,0.7-0.3,1.4-0.6,1.9c-0.2-0.2-0.6-0.5-0.8-0.6
		c0.5-0.8,0.5-1.8,0.5-2.6v-1.5h-0.5v-1.6h0.4V8.3h3.3v2.9h0.4v1.5H72.1z M71.7,12h-2.3v0.4h2.3V12z M69.8,11.2h0.4V9.6h1V9.2h-1.4
		V11.2z M70,14.3c0,0.3,0,0.6,0,0.9c0.3-0.1,0.8-0.3,1.2-0.6v-0.4l-0.4,0.4c-0.2-0.2-0.5-0.4-0.8-0.7V14.3z M70,13.8l0.3-0.3
		c0.3,0.2,0.6,0.4,0.8,0.6v-0.8H70V13.8z M71.2,11.2v-0.9h-0.4v0.9H71.2z M77.8,16.4v0.9h-5.3v-0.9h1.2c-0.1-0.3-0.2-0.5-0.3-0.7
		l0.6-0.2H73v-2h4.3v2h-1.1l0.8,0.2c-0.2,0.3-0.3,0.5-0.4,0.7H77.8z M77.7,13.2h-5.1v-0.9h5.1V13.2z M77.5,12h-4.8V8.8H74V8h0.9v0.7
		h0.4V8h0.9v0.7h1.3V12z M73.6,10h0.5V9.5h-0.5V10z M73.6,11.2h0.5v-0.5h-0.5V11.2z M74,14.7h2.2v-0.5H74V14.7z M74.4,15.5
		c0.1,0.3,0.3,0.6,0.3,0.9h0.8c0.1-0.3,0.2-0.6,0.3-0.9H74.4z M75.4,10V9.5h-0.5V10H75.4z M74.9,10.7v0.5h0.5v-0.5H74.9z M76.6,9.5
		h-0.5V10h0.5V9.5z M76.6,10.7h-0.5v0.5h0.5V10.7z"/>
	<path class="st1" d="M79.1,16.5c0.2-0.6,0.3-1.5,0.4-2.2l0.6,0.2c-0.1,0.7-0.2,1.6-0.4,2.2L79.1,16.5z M85.1,14.5
		C85,14.7,85,15,84.9,15.3c0.4,0.2,0.7,0.5,0.9,0.7l-0.6,0.8c-0.2-0.2-0.4-0.4-0.7-0.6c-0.2,0.5-0.5,0.9-0.9,1.3
		c-0.2-0.2-0.5-0.5-0.8-0.6c0,0.1-0.1,0.2-0.1,0.2c-0.2,0.2-0.3,0.3-0.6,0.3c-0.2,0-0.5,0-0.8,0c0-0.3-0.1-0.6-0.2-0.9
		c0.3,0,0.5,0,0.6,0c0.1,0,0.2,0,0.2-0.1c0.1-0.1,0.1-0.3,0.1-0.9l-0.4,0.1c-0.1-0.4-0.2-0.9-0.4-1.3l0.4-0.1c0.1,0.3,0.3,0.7,0.4,1
		c0-0.3,0-0.7,0-1.2h-2.6V8.4h3.5v1h-1v0.7h0.9v0.2c1.1-0.6,2-1.5,2.6-2.4l1.1,0.4c-0.1,0.1-0.1,0.2-0.2,0.3
		c0.6,0.5,1.5,1.1,2.2,1.4c-0.2,0.3-0.4,0.8-0.4,1.1c-0.3-0.2-0.6-0.3-0.9-0.6v0.7h-2.9v-0.5c-0.2,0.2-0.5,0.3-0.7,0.4
		c-0.1-0.2-0.4-0.5-0.7-0.7v0.6h-0.9v0.6H83v0.9h-0.9V13h1.1c0,0,0,0.3,0,0.4c-0.1,1.9-0.1,2.8-0.2,3.3c0.6-0.6,1-1.4,1.2-2.4
		L85.1,14.5z M80.7,14.5c0,0.6,0.1,1.3,0.1,1.8l-0.5,0.1c0-0.5,0-1.3,0-1.8L80.7,14.5z M80.5,9.4v0.7h0.6V9.4H80.5z M81.2,10.9h-0.6
		v0.6h0.6V10.9z M80.5,13h0.6v-0.6h-0.6V13z M81.3,14.4c0.1,0.5,0.3,1.2,0.3,1.6l-0.5,0.1c0-0.4-0.2-1.1-0.3-1.6L81.3,14.4z
		 M83.4,11.7h2.1v2.4h-2.1V11.7z M84.2,13.4h0.6v-0.9h-0.6V13.4z M86.9,10.2c-0.4-0.3-0.8-0.6-1.1-0.9c-0.3,0.3-0.6,0.6-1,0.9H86.9z
		 M87.6,14.4c-0.1,0.4-0.2,0.8-0.3,1.2c0.4,0.3,0.9,0.6,1.2,0.9l-0.7,0.8c-0.2-0.2-0.5-0.5-0.9-0.8c-0.2,0.3-0.4,0.6-0.6,0.9
		c-0.2-0.2-0.6-0.5-0.9-0.7c0.6-0.6,0.9-1.5,1.1-2.5L87.6,14.4z M85.9,11.7h2.2v2.4h-2.2V11.7z M86.7,13.4h0.6v-0.9h-0.6V13.4z"/>
</g>
</svg>
